<?xml version="1.0" standalone="no"?>
<!DOCTYPE svg PUBLIC "-//W3C//DTD SVG 20010904//EN"
 "http://www.w3.org/TR/2001/REC-SVG-20010904/DTD/svg10.dtd">
<svg version="1.0" xmlns="http://www.w3.org/2000/svg"
 width="288.000000pt" height="288.000000pt" viewBox="0 0 288.000000 288.000000"
 preserveAspectRatio="xMidYMid meet">
<metadata>
Created by potrace 1.14, written by Peter Selinger 2001-2017
</metadata>
<g transform="translate(0.000000,288.000000) scale(0.100000,-0.100000)"
fill="#000000" stroke="none">
<path d="M0 1440 l0 -1440 1440 0 1440 0 0 1440 0 1440 -1440 0 -1440 0 0
-1440z m670 1340 c28 -15 25 -24 -20 -54 -23 -15 -38 -31 -35 -36 3 -5 28 -12
55 -16 28 -4 50 -11 50 -17 0 -6 -17 -28 -37 -49 -43 -44 -38 -59 12 -35 54
26 58 23 51 -33 -4 -27 -3 -50 1 -50 4 0 18 16 31 35 12 19 26 35 31 35 5 0
13 -26 18 -57 l9 -58 13 40 c7 22 15 47 17 55 4 11 13 6 34 -20 l29 -35 1 43
c0 25 5 42 11 42 7 0 32 -17 57 -37 25 -21 43 -31 40 -23 -51 135 -49 150 21
125 86 -30 92 -15 24 58 -44 47 -45 50 -28 64 31 22 108 38 168 34 31 -2 18
-19 -28 -36 -73 -28 -73 -35 -5 -108 61 -66 77 -107 41 -107 -10 0 -49 9 -86
21 -37 11 -69 18 -73 15 -3 -3 7 -34 21 -68 14 -35 27 -72 29 -83 5 -34 -30
-28 -84 15 -28 22 -56 39 -62 37 -5 -2 -14 -18 -18 -35 -10 -38 -14 -39 -45
-10 -29 27 -35 20 -52 -57 -22 -98 -53 -92 -67 13 -3 29 -9 52 -11 52 -2 0
-20 -12 -38 -26 -19 -14 -39 -23 -45 -19 -5 3 -10 31 -10 61 0 30 -5 54 -10
54 -6 0 -42 -16 -81 -35 -110 -56 -119 -31 -28 75 34 39 59 74 55 77 -4 4 -36
9 -71 11 -80 5 -83 18 -15 62 28 18 50 34 50 36 0 2 -21 10 -47 17 -50 15 -66
32 -36 41 27 8 140 -2 163 -14z m1111 -1 c44 15 123 14 162 -3 113 -48 129
-223 27 -296 -45 -32 -127 -39 -181 -15 -37 17 -40 17 -58 1 -18 -17 -19 -16
-26 14 l-7 31 -35 -27 c-19 -14 -37 -24 -39 -21 -3 3 4 23 15 45 l20 40 -24 6
c-32 8 -32 19 2 41 l27 18 -30 24 c-16 14 -24 27 -19 29 39 17 41 23 17 65
-13 22 -21 43 -19 46 3 2 19 -3 36 -11 39 -21 51 -20 51 2 0 28 11 34 31 16
15 -13 24 -14 50 -5z m608 5 c2 -2 -2 -11 -9 -19 -11 -13 -11 -26 0 -70 37
-155 -42 -230 -242 -230 -104 0 -126 8 -90 32 16 12 22 25 22 54 0 45 3 46 37
19 14 -11 34 -20 43 -20 23 0 44 26 36 45 -5 14 -62 45 -111 60 -16 5 -17 8
-5 15 8 5 32 12 53 15 37 7 38 8 21 26 -9 10 -36 26 -61 35 -57 22 -44 35 41
41 51 5 71 2 91 -11 23 -15 25 -20 19 -72 -7 -55 -6 -56 17 -52 21 3 24 9 25
48 1 25 2 53 3 63 1 22 37 36 76 30 17 -3 32 -7 34 -9z m-1554 -14 c10 -11 26
-20 35 -20 9 0 25 9 35 20 12 13 31 20 57 20 38 0 51 -13 23 -24 -24 -9 -17
-30 15 -49 41 -25 39 -41 -4 -33 -42 8 -52 -5 -36 -45 18 -41 5 -48 -29 -15
-35 33 -46 29 -55 -20 -9 -45 -30 -40 -34 9 -2 28 -8 37 -21 37 -10 0 -24 -7
-31 -15 -12 -15 -40 -21 -40 -9 0 3 9 17 20 31 26 34 16 46 -31 38 -50 -9 -52
9 -4 29 37 16 45 33 20 42 -28 11 -15 24 23 24 26 0 45 -7 57 -20z m423 -77
c-2 -23 -7 -28 -27 -25 -14 1 -33 10 -43 19 -23 21 -8 33 40 33 30 0 33 -2 30
-27z m-678 -90 c0 -15 -55 -63 -72 -63 -23 0 -24 33 -2 54 15 16 74 23 74 9z
m613 -113 c31 -22 58 -49 62 -60 6 -20 -10 -60 -25 -60 -10 0 -58 60 -89 110
-38 63 -26 66 52 10z m-533 -65 c7 -9 15 -39 18 -67 l5 -51 -39 6 c-24 4 -48
16 -61 32 -25 29 -28 47 -13 76 13 24 72 26 90 4z m1650 -5 c0 -25 -54 -60
-92 -60 -17 0 -31 7 -38 19 -16 31 -12 41 18 42 15 0 36 4 47 9 37 16 65 12
65 -10z m58 8 c30 -30 -4 -104 -61 -131 -46 -22 -115 -23 -124 -1 -8 21 22 44
56 44 41 0 91 36 98 70 6 33 13 36 31 18z m-593 -8 c3 -5 15 -10 26 -10 26 0
26 -58 -1 -93 l-20 -26 -25 23 c-15 14 -23 30 -20 38 4 9 -1 18 -10 21 -19 8
-65 -9 -65 -23 0 -6 -4 -8 -10 -5 -16 10 -12 30 11 59 16 21 29 26 64 26 24 0
47 -4 50 -10z m239 -5 c11 -11 26 -14 55 -9 40 6 41 6 61 -37 27 -60 25 -76
-12 -99 -47 -29 -134 -27 -178 3 -40 27 -67 62 -76 100 -6 25 -4 27 22 28 16
0 45 6 64 13 47 18 46 18 64 1z m-969 -21 c21 -8 45 -56 45 -90 l0 -26 35 31
c46 40 86 41 115 4 15 -19 20 -38 18 -67 -3 -44 -28 -64 -28 -22 0 34 -16 34
-24 0 -9 -35 1 -64 20 -57 11 4 12 0 6 -18 -12 -33 -53 -52 -86 -39 -28 10
-66 64 -66 94 0 16 -4 15 -36 -9 -76 -58 -163 -54 -190 11 -10 24 -11 40 -4
59 11 29 30 25 30 -6 0 -11 7 -22 15 -25 25 -10 45 16 45 58 0 38 -1 40 -26
34 -22 -6 -24 -5 -15 13 27 49 94 74 146 55z m-515 -28 c0 -15 12 -34 31 -50
l31 -26 -23 -9 c-44 -16 -81 9 -81 54 0 26 18 55 33 55 5 0 9 -11 9 -24z
m1310 -111 c-19 -59 -81 -92 -140 -75 -23 7 -32 5 -39 -7 -23 -42 -59 52 -40
106 7 19 15 28 22 24 6 -4 27 -10 47 -13 26 -4 34 -10 32 -23 -2 -12 4 -17 23
-17 38 0 61 15 75 51 13 31 14 31 22 9 5 -14 4 -36 -2 -55z m-1066 49 c7 -19
-10 -44 -29 -44 -19 0 -36 25 -29 44 3 9 16 16 29 16 13 0 26 -7 29 -16z
m1621 -80 c-1 -92 -9 -144 -24 -144 -18 0 -77 48 -108 88 -45 59 -43 78 7 86
24 4 53 18 72 36 18 16 38 28 43 26 6 -2 10 -41 10 -92z m-1679 10 c16 -33 16
-38 1 -70 -26 -54 -70 -76 -141 -70 -32 2 -62 8 -68 14 -5 5 -2 30 9 63 23 68
64 99 134 99 45 0 49 -2 65 -36z m88 10 c20 -19 20 -19 0 -38 -12 -12 -20 -13
-35 -6 -22 12 -25 30 -7 48 16 16 23 15 42 -4z m1104 -42 c4 -28 -24 -40 -45
-19 -14 13 -14 19 -3 32 18 22 44 15 48 -13z m254 -4 c24 -9 55 -38 119 -114
10 -10 35 -34 58 -52 44 -35 68 -92 57 -135 -3 -13 -25 -53 -49 -88 -46 -67
-61 -99 -49 -99 4 0 20 14 35 31 15 18 34 29 44 27 27 -5 28 -65 2 -108 l-21
-34 -14 27 c-23 42 -40 37 -88 -28 -12 -15 -15 -16 -16 -5 0 31 -59 137 -89
163 -18 15 -52 32 -76 38 -66 17 -78 35 -69 108 6 55 8 60 26 50 10 -5 29 -34
42 -63 15 -33 39 -64 66 -86 24 -19 56 -54 72 -79 20 -32 28 -39 28 -25 0 25
-43 93 -103 163 -52 61 -58 75 -24 66 65 -18 77 -33 122 -152 l31 -83 22 45
22 45 -30 15 c-38 20 -63 58 -55 83 8 26 54 72 72 72 12 0 13 -12 8 -64 -8
-72 4 -91 36 -59 30 29 34 82 10 120 -26 42 -60 50 -123 29 -58 -19 -115 -21
-155 -5 -60 22 -116 99 -129 176 l-6 38 99 -3 c54 -2 110 -8 125 -14z m-387
-58 c8 -26 -1 -40 -26 -40 -22 0 -34 22 -25 45 8 22 44 18 51 -5z m111 -5 c15
-23 15 -27 0 -50 -28 -42 -86 -26 -86 25 0 51 58 68 86 25z m-1097 -1 c79 -56
36 -182 -44 -130 -31 21 -36 61 -13 119 12 31 24 34 57 11z m300 -20 c26 -33
26 -37 -1 -49 -12 -6 -23 -16 -26 -22 -2 -8 13 -5 43 8 84 37 148 4 131 -67
l-7 -27 -20 22 c-16 17 -31 21 -82 21 l-62 -1 35 -15 c40 -18 50 -30 50 -66 0
-17 -10 -35 -31 -52 -17 -14 -34 -26 -37 -26 -4 0 -7 18 -7 39 -1 24 -8 48
-20 60 -22 26 -31 26 -40 4 -11 -27 -14 -132 -4 -139 5 -3 9 -15 9 -27 0 -12
12 -40 25 -62 29 -46 31 -63 10 -71 -18 -7 -75 45 -75 69 0 10 -7 29 -16 42
-9 13 -13 33 -10 43 4 11 2 32 -4 47 -10 27 2 95 23 123 7 9 4 12 -12 12 -34
0 -89 -26 -117 -57 l-27 -28 6 40 c9 61 47 89 111 82 l50 -4 -29 24 c-21 18
-37 24 -62 21 -27 -3 -33 -1 -33 15 0 68 60 77 113 17 l36 -39 7 37 c4 20 9
40 11 45 9 16 43 6 62 -19z m616 -24 c0 -18 -6 -26 -23 -28 -24 -4 -38 18 -28
44 3 9 15 14 28 12 17 -2 23 -10 23 -28z m-1013 -37 c3 -21 7 -44 9 -52 6 -23
-28 -24 -50 -2 -26 26 -26 32 0 65 28 35 36 33 41 -11z m1102 11 c34 -34 9
-78 -40 -72 -34 4 -48 37 -28 67 18 25 46 27 68 5z m164 -11 c4 -30 -31 -49
-52 -27 -12 12 -13 20 -5 35 14 27 53 22 57 -8z m-1422 8 c5 -5 25 -11 44 -13
l35 -3 -28 -19 c-33 -22 -71 -11 -80 23 -5 22 11 29 29 12z m1164 -46 c7 -8
10 -25 6 -39 -8 -33 -42 -43 -67 -20 -23 21 -24 37 -3 58 20 20 48 20 64 1z
m174 -8 c16 -25 -16 -56 -38 -37 -19 15 -21 46 -3 53 18 8 29 3 41 -16z
m-1295 -33 c23 3 41 4 41 2 0 -10 -69 -46 -88 -46 -23 0 -52 35 -52 63 0 16 2
16 29 -4 24 -18 38 -20 70 -15z m1381 1 c20 -25 8 -50 -25 -50 -31 0 -43 20
-31 51 7 18 40 18 56 -1z m-182 -34 c4 -29 -15 -43 -40 -30 -21 11 -23 30 -6
47 19 19 43 10 46 -17z m-1062 -6 c3 -8 -4 -44 -16 -79 -33 -101 -19 -114 24
-23 20 42 40 77 45 77 34 0 4 -111 -73 -269 -50 -103 -54 -125 -30 -159 14
-20 14 -22 -4 -22 -11 0 -31 9 -45 20 l-25 20 -7 -28 c-8 -38 6 -70 45 -107
50 -47 63 -78 48 -115 l-13 -30 -46 40 c-71 61 -96 146 -68 231 7 19 31 64 55
100 24 37 44 73 44 80 -1 8 -11 27 -24 43 -33 40 -49 27 -41 -34 5 -37 3 -54
-10 -74 -18 -26 -49 -34 -60 -16 -16 27 -25 145 -15 208 17 105 50 128 50 35
0 -69 15 -61 30 15 22 117 56 121 45 6 -4 -41 -4 -74 -2 -74 3 0 13 21 22 48
42 118 58 142 71 107z m1170 -20 c15 -23 15 -27 0 -50 -9 -14 -26 -25 -38 -25
-25 0 -58 27 -58 47 0 54 66 74 96 28z m-642 -27 c23 -32 20 -69 -9 -108 -32
-43 -31 -50 6 -89 34 -36 33 -48 -7 -117 -31 -52 -30 -79 1 -110 33 -33 32
-37 -12 -29 -51 9 -100 41 -118 75 -21 40 -19 103 3 130 18 22 19 22 46 5 38
-25 58 -5 21 21 -105 74 -110 96 -35 150 49 35 68 69 56 99 -8 22 28 2 48 -27z
m-352 -26 c-5 -70 8 -104 82 -215 67 -99 76 -132 46 -170 -26 -32 -62 -35 -90
-7 -22 22 -25 37 -10 60 8 13 11 12 23 -4 17 -23 37 -14 37 16 0 12 -21 57
-46 100 -25 43 -54 104 -64 136 l-18 57 -1 -42 c-1 -23 10 -77 24 -119 14 -42
25 -86 25 -98 0 -36 -22 -58 -55 -54 -24 2 -31 8 -33 30 -3 22 0 26 17 21 14
-3 23 0 27 11 6 16 2 37 -31 151 l-14 50 0 -77 c-1 -91 -12 -124 -46 -140 -29
-13 -55 3 -55 33 0 13 7 17 27 16 28 -2 28 -1 35 76 8 87 41 161 91 203 16 13
30 24 31 24 1 0 0 -26 -2 -58z m798 8 c26 0 50 -41 50 -85 0 -25 5 -45 10 -45
6 0 10 15 10 34 0 50 18 60 74 39 25 -10 45 -22 43 -28 -2 -5 -25 -20 -51 -33
-38 -18 -47 -27 -44 -45 4 -31 58 -38 58 -8 0 31 16 26 63 -18 48 -45 45 -55
-22 -70 -52 -11 -64 -7 -56 20 5 16 1 19 -24 19 -35 0 -38 -7 -16 -36 32 -42
7 -74 -40 -52 -26 12 -32 41 -16 68 21 32 -3 30 -38 -3 -36 -36 -109 -67 -84
-36 6 8 13 39 15 69 3 63 24 77 62 41 12 -12 26 -18 29 -14 18 17 3 43 -43 71
-47 29 -50 34 -50 72 0 23 5 50 10 60 10 19 11 19 30 0 11 -11 25 -20 30 -20z
m274 4 c7 -19 -10 -44 -31 -44 -17 0 -27 24 -19 45 7 20 42 19 50 -1z m18 -96
c24 24 30 11 23 -47 -7 -63 3 -83 31 -60 10 8 15 27 14 53 -3 59 -2 61 18 43
12 -11 22 -13 32 -7 24 15 31 12 24 -14 -4 -19 -1 -26 18 -32 20 -6 17 -9 -27
-23 -63 -20 -76 -51 -21 -51 19 0 47 5 61 12 30 14 43 5 24 -18 -12 -14 -10
-19 10 -35 23 -19 21 -23 -11 -20 -12 2 -18 -5 -18 -18 0 -34 -16 -32 -41 7
-27 42 -69 56 -69 24 0 -25 35 -69 60 -77 26 -8 26 -25 0 -25 -16 0 -20 -7
-20 -32 l0 -31 -24 22 c-15 14 -26 19 -31 12 -3 -6 -13 -11 -21 -11 -12 0 -12
5 1 36 17 42 19 82 5 104 -17 26 -60 -32 -60 -81 0 -40 -13 -52 -24 -23 -4 11
-13 14 -31 10 -22 -6 -24 -4 -16 16 7 19 4 25 -18 34 -26 11 -25 12 21 24 96
25 113 88 37 135 -38 25 -44 45 -13 45 9 0 14 10 14 27 0 26 0 26 20 8 16 -14
23 -16 32 -7z m347 -185 c50 -41 42 -155 -15 -230 -25 -33 -29 -35 -32 -18 -5
24 -41 65 -57 65 -24 0 -65 42 -65 65 0 29 41 59 68 51 16 -5 19 -1 19 25 0
19 7 37 18 45 25 18 38 18 64 -3z m-986 -87 c45 -18 67 -51 67 -101 0 -140
-182 -201 -285 -95 -31 32 -39 48 -43 88 -5 58 9 74 41 44 34 -31 62 -42 106
-42 83 0 116 33 66 66 -38 25 -46 47 -34 84 l11 31 19 -30 c10 -17 34 -37 52
-45z m361 38 c23 -9 20 -34 -3 -34 -11 0 -23 -4 -26 -10 -3 -5 1 -10 10 -10
21 0 31 -30 14 -41 -8 -5 -22 -6 -31 -3 -10 3 -27 2 -38 -1 -16 -5 -18 -10
-10 -25 12 -22 0 -32 -53 -49 -43 -14 -57 -35 -57 -84 0 -65 66 -117 148 -117
40 0 88 27 65 36 -7 3 -13 14 -13 25 0 16 -4 17 -26 9 -38 -15 -97 -12 -122 6
-25 18 -29 39 -7 48 8 3 15 12 15 21 0 21 12 19 57 -7 30 -18 53 -23 108 -22
39 0 80 6 93 12 20 11 22 10 22 -8 0 -63 -80 -153 -145 -166 -105 -19 -197 23
-240 109 -73 147 24 312 187 316 20 1 43 -2 52 -5z m107 -37 c46 -31 70 -96
49 -134 -22 -38 -44 -49 -77 -37 -44 15 -56 51 -37 108 9 26 14 56 11 66 -7
27 12 25 54 -3z m-1023 -4 c9 -10 27 -17 38 -15 25 4 54 -22 54 -48 0 -10 -11
-27 -25 -38 -13 -11 -22 -22 -18 -25 3 -4 -2 -18 -11 -32 -19 -28 -57 -33 -76
-10 -7 8 -24 15 -39 15 -53 0 -70 54 -28 87 13 10 22 24 20 30 -5 15 32 53 52
53 8 0 23 -8 33 -17z m1181 -76 c22 -27 23 -65 2 -86 -24 -24 -40 -26 -65 -8
-16 12 -18 22 -12 70 l7 56 29 -11 c16 -5 33 -15 39 -21z m-948 -33 c10 -9 26
-37 35 -63 24 -63 31 -71 69 -71 25 0 40 -8 59 -31 41 -48 30 -89 -25 -89 -47
0 -92 40 -107 95 -18 64 -43 90 -103 110 -36 12 -49 22 -49 36 0 39 83 48 121
13z m677 0 c42 -29 15 -97 -30 -73 -12 7 -16 20 -15 49 1 43 11 48 45 24z
m482 -10 c90 -54 77 -176 -32 -285 -53 -53 -81 -61 -99 -27 -10 18 -9 24 6 33
60 35 82 55 100 87 22 42 11 66 -13 28 -9 -14 -33 -42 -54 -64 -41 -41 -63
-43 -114 -9 -36 23 -29 45 26 87 49 37 77 72 67 83 -3 3 -35 -20 -71 -51 -70
-59 -99 -68 -116 -37 -15 29 -14 30 37 52 26 11 71 42 100 70 45 42 57 49 93
49 23 0 54 -7 70 -16z m-1219 -97 c77 -51 105 -193 49 -252 -57 -61 -170 -53
-246 17 -49 45 -69 93 -61 150 5 38 30 78 49 78 4 0 8 -19 8 -42 0 -66 33
-123 86 -149 81 -39 154 -7 154 66 0 79 -95 144 -142 98 -28 -28 -18 -67 23
-88 28 -15 69 -13 69 3 0 4 -13 13 -30 19 -51 19 -50 69 1 56 53 -14 77 -99
37 -127 -70 -49 -168 15 -168 109 0 79 95 113 171 62z m429 -37 c0 -4 8 -7 17
-6 12 1 19 -9 24 -37 7 -43 1 -50 -37 -41 -23 6 -25 4 -20 -14 18 -55 -63
-121 -147 -122 -39 0 -96 23 -98 40 -5 32 -3 35 33 32 39 -4 51 5 92 68 19 30
27 35 59 34 34 -1 37 1 37 26 0 15 3 29 6 33 8 7 34 -3 34 -13z m524 -100 c20
-7 26 -17 26 -38 0 -34 -31 -52 -89 -52 -48 0 -74 19 -69 50 5 42 74 63 132
40z m-434 -43 c39 -26 150 -43 168 -25 12 12 32 2 32 -16 0 -8 6 -19 14 -26
17 -13 10 -40 -10 -40 -7 0 -18 -16 -23 -36 -13 -45 -38 -74 -65 -74 -34 0
-81 35 -100 74 -9 20 -22 36 -27 36 -6 0 -30 -16 -53 -35 -52 -42 -113 -65
-175 -65 -38 -1 -43 -3 -27 -11 35 -21 130 -6 186 29 28 18 55 32 59 32 3 0
15 -14 24 -30 24 -39 70 -63 129 -65 59 -2 67 -9 34 -30 -34 -22 -110 -23
-134 -2 -17 16 -22 15 -75 -3 -31 -11 -74 -20 -95 -20 -54 0 -139 27 -187 60
-23 16 -66 33 -100 39 -35 7 -68 20 -83 34 l-24 22 44 7 c50 9 88 45 88 85 l0
27 31 -30 c17 -16 37 -44 44 -61 12 -28 19 -33 49 -33 33 0 66 20 66 41 0 5
12 12 28 15 59 15 100 43 119 83 10 22 20 41 23 41 3 0 21 -11 40 -23z m528
-60 c33 -67 -63 -159 -190 -182 -82 -15 -127 23 -109 93 17 61 41 76 119 77
49 0 78 6 107 22 48 26 56 25 73 -10z m-561 -441 c25 -21 28 -31 31 -100 5
-85 -7 -143 -45 -229 l-26 -58 23 -24 c16 -17 34 -25 58 -25 32 0 34 2 28 26
-4 14 0 50 8 78 34 116 121 163 161 86 28 -55 20 -93 -30 -139 l-44 -41 26 -6
c56 -15 103 31 154 150 36 86 57 84 84 -9 30 -104 45 -135 66 -135 29 0 42 37
35 102 -8 81 12 131 51 126 27 -3 28 -5 27 -58 -2 -101 -71 -219 -139 -236
-36 -9 -63 12 -82 66 -10 28 -22 50 -27 50 -5 0 -24 -18 -43 -39 -59 -70 -152
-100 -201 -65 -21 14 -26 14 -63 0 -54 -22 -72 -20 -107 9 -37 31 -40 31 -98
0 -78 -41 -121 -28 -171 50 -13 19 -13 19 -30 -5 -66 -92 -88 -91 -136 8 -44
89 -56 90 -147 10 -94 -82 -107 -91 -120 -83 -5 3 -10 15 -10 25 0 28 48 202
59 213 17 17 38 0 45 -37 4 -19 11 -38 16 -41 4 -3 24 16 43 43 20 26 45 56
56 66 20 18 22 18 39 2 11 -9 24 -35 31 -59 19 -68 42 -115 60 -122 23 -9 61
39 61 76 0 47 26 99 49 99 30 0 44 -36 38 -93 -6 -48 4 -84 27 -99 21 -14 74
-8 97 11 22 18 22 21 11 70 -28 120 -8 269 44 331 31 36 54 38 91 6z m-253
-12 c22 -21 20 -50 -4 -74 -24 -24 -43 -25 -64 -4 -20 20 -20 43 0 72 18 26
46 28 68 6z m-822 -117 c-29 -199 -5 -303 74 -323 36 -9 89 18 108 55 9 16 21
60 27 98 10 59 9 78 -5 125 -21 74 -20 111 3 132 54 49 85 -19 78 -169 -6
-113 -24 -174 -68 -228 -75 -91 -242 -77 -295 25 -25 49 -34 133 -23 216 14
101 34 149 67 160 42 15 47 1 34 -91z m2308 -77 c52 -52 -11 -111 -65 -60
l-22 20 -28 -22 c-17 -13 -47 -63 -76 -125 -61 -129 -84 -134 -112 -25 l-13
52 -32 -46 c-51 -72 -138 -102 -201 -70 -73 38 -68 175 8 239 53 44 111 32
137 -28 23 -55 -3 -97 -79 -129 -46 -19 -40 -36 12 -36 53 0 84 28 122 108 45
97 45 97 60 97 9 0 17 -18 22 -50 15 -87 17 -95 27 -95 6 0 22 26 36 58 26 60
66 108 99 122 36 16 84 11 105 -10z"/>
<path d="M1794 2736 c-16 -13 -17 -15 -3 -21 8 -3 28 -1 43 5 27 10 28 9 22
-14 -5 -21 -2 -24 34 -30 48 -8 51 -20 8 -35 l-32 -11 27 -28 c32 -34 27 -42
-19 -35 -34 6 -34 5 -28 -26 l7 -31 -37 15 c-31 13 -36 13 -36 1 0 -15 49 -36
82 -36 10 0 32 7 48 15 72 37 82 165 19 224 -27 25 -104 29 -135 7z"/>
<path d="M1730 2675 c0 -9 -9 -15 -21 -15 -18 0 -19 -2 -9 -15 10 -12 10 -18
0 -30 -10 -12 -9 -15 4 -15 9 0 20 -10 25 -22 5 -14 10 -17 15 -10 4 7 16 12
28 12 13 0 18 5 15 14 -3 8 2 17 11 21 16 6 16 7 0 16 -11 6 -15 16 -11 26 5
13 2 15 -11 10 -10 -4 -19 -1 -22 8 -8 19 -24 19 -24 0z"/>
<path d="M2315 2760 c-7 -12 2 -30 16 -30 12 0 12 27 0 35 -5 3 -12 1 -16 -5z"/>
<path d="M2310 2624 c-15 -38 -38 -64 -75 -81 l-30 -14 40 6 c53 8 89 35 93
70 5 41 -15 55 -28 19z"/>
<path d="M1959 2330 c15 -13 38 -20 65 -20 65 0 64 13 -1 26 -83 18 -92 17
-64 -6z"/>
<path d="M1002 2348 c-9 -11 -42 -123 -42 -142 0 -3 4 -6 9 -6 12 0 37 64 46
118 7 44 4 50 -13 30z"/>
<path d="M1030 2275 c-14 -41 -7 -54 18 -39 19 13 23 65 5 71 -6 2 -16 -12
-23 -32z"/>
<path d="M1162 2253 c-18 -48 -22 -82 -12 -88 11 -7 25 24 35 79 9 43 -8 49
-23 9z"/>
<path d="M1107 2253 c-4 -3 -7 -15 -7 -25 0 -26 24 -17 28 10 3 21 -8 29 -21
15z"/>
<path d="M640 2221 c0 -20 25 -51 41 -51 12 0 11 11 -3 43 -15 31 -38 36 -38
8z"/>
<path d="M567 2204 c-22 -23 11 -74 48 -74 17 0 17 1 -2 23 -11 12 -25 30 -30
40 -5 10 -12 14 -16 11z"/>
<path d="M2047 2140 c4 -14 -1 -22 -18 -29 -21 -9 -19 -10 19 -10 40 -1 54
-12 32 -26 -5 -3 -10 -11 -10 -16 0 -5 18 0 40 11 41 21 73 19 51 -3 -6 -6
-11 -17 -11 -25 0 -10 7 -8 25 6 16 13 34 18 48 15 l22 -6 -22 25 c-13 13 -23
30 -23 36 0 7 -4 12 -10 12 -5 0 -10 -7 -10 -15 0 -24 -18 -17 -42 15 -21 29
-23 30 -30 10 -9 -25 -24 -26 -38 0 -14 26 -30 26 -23 0z"/>
<path d="M1323 1380 c-23 -14 -33 -27 -33 -45 0 -25 15 -32 36 -17 16 11 44
55 44 69 0 18 -10 16 -47 -7z"/>
<path d="M1790 1446 c0 -17 5 -26 16 -26 10 0 14 7 12 22 -5 32 -28 35 -28 4z"/>
<path d="M752 1418 c4 -27 33 -36 42 -13 8 22 -1 35 -25 35 -15 0 -20 -6 -17
-22z"/>
<path d="M1110 1215 c0 -14 29 -35 49 -35 18 0 12 29 -8 40 -27 14 -41 13 -41
-5z"/>
<path d="M2123 1354 c-9 -23 9 -48 37 -52 47 -7 50 36 4 57 -32 14 -33 14 -41
-5z"/>
<path d="M1560 1014 c-11 -12 -10 -18 3 -32 16 -15 18 -15 34 0 13 14 14 20 3
32 -7 9 -16 16 -20 16 -4 0 -13 -7 -20 -16z"/>
<path d="M1910 1000 c-8 -6 -30 -10 -47 -10 -31 0 -33 -2 -33 -35 0 -19 5 -35
11 -35 28 0 80 34 85 57 8 29 3 35 -16 23z"/>
<path d="M1380 514 c-13 -34 -13 -201 0 -209 26 -16 62 148 46 209 -8 33 -34
33 -46 0z"/>
<path d="M1584 305 c-18 -28 -11 -85 11 -85 33 0 58 73 33 98 -17 17 -26 15
-44 -13z"/>
<path d="M2156 308 c-21 -30 -21 -78 -1 -78 19 0 65 44 65 63 0 16 -20 37 -36
37 -7 0 -20 -10 -28 -22z"/>
</g>
</svg>
